<svg width="8" height="11" viewBox="0 0 8 11" fill="none" xmlns="http://www.w3.org/2000/svg">
<path d="M7.10352 11H0.521484V10.3066C0.716797 10.2936 1.01953 10.2676 1.42969 10.2285C1.84635 10.1829 2.13281 10.1374 2.28906 10.0918C2.49089 10.0267 2.64388 9.92253 2.74805 9.7793C2.85872 9.62956 2.91406 9.4082 2.91406 9.11523V2.25977H0.482422V1.43945H1.01953C1.72266 1.43945 2.35091 1.30924 2.9043 1.04883C3.46419 0.788411 3.86458 0.508464 4.10547 0.208984H4.91602C4.89648 0.632161 4.87695 1.12695 4.85742 1.69336C4.83789 2.25977 4.82812 2.76758 4.82812 3.2168V9.00781C4.82812 9.23568 4.87695 9.44076 4.97461 9.62305C5.07878 9.79883 5.22526 9.92904 5.41406 10.0137C5.58333 10.0853 5.86003 10.1504 6.24414 10.209C6.62826 10.2676 6.91471 10.3001 7.10352 10.3066V11Z" fill="#292929"/>
</svg>
